<?xml version="1.0" standalone="no"?>
<!DOCTYPE svg PUBLIC "-//W3C//DTD SVG 20010904//EN"
 "http://www.w3.org/TR/2001/REC-SVG-20010904/DTD/svg10.dtd">
<svg version="1.0" xmlns="http://www.w3.org/2000/svg"
 width="150.000000pt" height="150.000000pt" viewBox="0 0 150.000000 150.000000"
 preserveAspectRatio="xMidYMid meet">

<g transform="translate(0.000000,150.000000) scale(0.100000,-0.100000)"
fill="#000000" stroke="none">
<path d="M0 750 l0 -750 750 0 750 0 0 750 0 750 -750 0 -750 0 0 -750z m530
199 c264 -223 260 -218 213 -261 -17 -16 -27 -10 -196 133 -97 82 -179 149
-182 149 -3 0 -6 -143 -7 -317 l-3 -318 -40 0 -40 0 -3 413 c-1 226 0 412 3
412 3 0 118 -95 255 -211z m700 -204 l0 -415 -40 0 -40 0 0 286 c0 172 -4 284
-9 282 -5 -1 -89 -109 -187 -238 -97 -129 -182 -241 -189 -249 -11 -11 -38 7
-159 109 l-146 122 0 55 c0 51 1 54 17 42 10 -8 71 -58 135 -112 65 -55 122
-97 127 -95 8 3 375 476 454 586 17 23 32 42 34 42 2 0 3 -187 3 -415z"/>
</g>
</svg>
